<svg width="113" height="117" viewBox="0 0 113 117" fill="none" xmlns="http://www.w3.org/2000/svg">
<g clip-path="url(#clip0_678_814)">
<path d="M41.4311 79.2183C46.9607 68.9842 52.4067 58.7057 57.941 48.4737C59.6541 45.3069 61.3521 42.1305 63.0861 38.9743C63.802 37.6709 65.5459 38.329 65.6741 39.6137C66.3398 46.3402 67.0639 53.061 67.7845 59.7807C75.8119 47.6135 83.7845 35.4108 91.7839 23.2265C93.6112 20.4434 95.429 17.6493 97.3168 14.9025C97.2861 14.9139 97.2543 14.9243 97.2248 14.9346C96.0173 15.3503 94.8097 15.7614 93.6022 16.1748C92.3811 16.5932 91.1737 17.1888 89.8691 17.0368C89.0898 16.9448 88.9526 15.8893 89.4202 15.4006C90.2795 14.5035 91.6676 14.2048 92.7992 13.7785C94.0465 13.3089 95.2926 12.8359 96.5423 12.3684C98.9883 11.4528 101.438 10.5495 103.886 9.64054C105.067 9.20204 106.065 10.6787 105.487 11.6818C103.716 14.7564 102.218 17.959 101.103 21.3206C100.558 22.9667 100.095 24.6392 99.717 26.3299C99.5227 27.1971 99.3492 28.0703 99.1906 28.9441C99.028 29.8408 99.0379 30.9378 98.517 31.7144C97.8525 32.7038 96.4947 32.5312 96.0987 31.437C95.7754 30.5414 96.101 29.4322 96.2481 28.51C96.395 27.5855 96.5754 26.6676 96.7845 25.7543C97.1937 23.9746 97.6974 22.2163 98.2935 20.4862C98.9013 18.7226 99.5946 16.9829 100.379 15.284C96.6143 21.3646 92.5249 27.2634 88.571 33.2217C84.2211 39.7774 79.8689 46.3333 75.5189 52.889C73.0157 56.6598 70.5056 60.4285 68.0152 64.2067C67.2498 65.3687 65.6701 64.901 65.5276 63.5918C64.8307 57.125 64.144 50.6566 63.4208 44.1919C58.1688 54.0359 52.7984 63.8208 47.4848 73.632C45.7694 76.7988 44.047 79.9614 42.3455 83.1345C41.7364 84.2709 40.2762 83.8587 39.8755 82.8513C38.1431 78.4963 37.113 73.9996 36.6132 69.4033C34.8789 74.0178 33.0556 78.605 31.3129 83.2073C28.7451 89.9906 26.1772 96.7738 23.6117 103.557C22.1437 107.433 20.6793 111.315 19.0516 115.13C18.4842 116.458 16.251 115.58 16.703 114.216C18.9945 107.293 21.7144 100.498 24.2938 93.6748C26.8582 86.8906 29.4202 80.1064 31.9846 73.3222C33.4513 69.4401 34.8437 65.5199 36.4272 61.6821C36.9741 60.3569 39.1678 60.9915 39.0867 62.3392C38.7459 68.0253 39.6658 73.8048 41.4321 79.2126L41.4311 79.2183Z" fill="#215679"/>
</g>
<defs>
<clipPath id="clip0_678_814">
<rect width="24.8193" height="137.27" fill="white" transform="matrix(0.732304 0.680978 0.686149 -0.727461 0.311035 99.8584)"/>
</clipPath>
</defs>
</svg>
