<svg width="169" height="163" viewBox="0 0 169 163" fill="none" xmlns="http://www.w3.org/2000/svg">
<path d="M133.882 47.9992C135.671 48.4635 136.439 50.0224 136.565 51.7238C136.706 53.6233 136.666 55.5533 136.71 57.4569C136.803 61.4531 136.954 65.4522 136.889 69.451C136.858 71.301 134.238 71.1595 134.068 69.4085C133.733 65.9476 133.567 62.4769 133.366 59.0052C133.275 57.429 133.183 55.8549 133.091 54.2788C130.318 61.5313 126.648 68.5321 122.384 75.0208C117.918 81.8174 112.544 88.127 106.06 93.0998C96.294 100.59 83.3142 104.888 70.948 103.34C69.4264 108.884 65.8663 113.907 60.7874 116.693C49.5802 122.837 34.7147 115.397 31.3442 103.56C30.9408 102.142 30.7252 100.681 30.667 99.2105C30.6084 97.6705 32.91 97.7638 33.0391 99.2464C33.9322 109.571 45.7914 117.694 55.8102 114.971C61.5866 113.401 65.8044 108.426 67.4709 102.746C66.2796 102.486 65.0978 102.167 63.9278 101.788C60.5293 100.687 57.1306 99.087 54.3192 96.872C51.5407 94.6847 48.9183 91.5505 49.0377 87.8172C49.1588 84.0062 52.1985 81.0514 55.8172 80.2218C59.9083 79.2848 63.9568 81.2166 66.7417 84.1405C70.7692 88.3684 72.2388 94.0779 71.6459 99.6497C82.323 100.855 93.4514 97.2791 102.123 91.1319C114.1 82.6431 122.019 69.6413 128.052 56.5761C128.71 55.1516 129.42 53.7535 130.115 52.3454C129.263 52.652 128.416 52.9816 127.574 53.272C125.925 53.8431 124.275 54.4142 122.623 54.9867C119.383 56.1084 116.053 57.6015 112.658 58.1588C110.911 58.4443 109.798 56.1103 111.489 55.185C113.26 54.2173 115.242 53.6096 117.149 52.9586C119.055 52.3077 120.961 51.6588 122.868 51.0078C124.774 50.3569 126.681 49.7079 128.587 49.057C130.227 48.4982 132.111 47.5435 133.88 48.0006L133.882 47.9992ZM66.5275 89.994C65.0369 87.1041 62.4672 84.3279 59.1382 83.6801C56.6323 83.1928 53.2854 84.5293 52.7695 87.2624C52.2569 89.9838 54.6076 92.5078 56.6106 94.0086C59.1143 95.8826 62.0017 97.2752 64.9785 98.2311C66.0341 98.5694 67.1012 98.8494 68.1769 99.081C68.467 95.9545 67.9674 92.7882 66.5275 89.994Z" fill="#215679"/>
</svg>
