<svg width="72" height="72" viewBox="0 0 72 72" fill="none" xmlns="http://www.w3.org/2000/svg">
<g clip-path="url(#clip0_980_1287)">
<path d="M66.5772 8.73703H63.2627V5.4225C63.2627 4.84003 62.7905 4.36781 62.208 4.36781H58.8949V1.05469C58.8949 0.472219 58.4227 0 57.8402 0H38.2975C37.7151 0 37.2429 0.472219 37.2429 1.05469C37.2429 1.63716 37.7151 2.10938 38.2975 2.10938H56.7855V61.1536H10.8461V54.5272H11.9751C13.761 54.5272 15.2138 53.0743 15.2138 51.2885C15.2138 49.5027 13.7609 48.0497 11.9751 48.0497H10.8461V45.791H11.9751C13.761 45.791 15.2138 44.3381 15.2138 42.5523C15.2138 40.7663 13.7609 39.3135 11.9751 39.3135H10.8461V37.0547H11.9751C13.761 37.0547 15.2138 35.6017 15.2138 33.816C15.2138 32.0302 13.7609 30.5772 11.9751 30.5772H10.8461V28.3185H11.9751C13.761 28.3185 15.2138 26.8656 15.2138 25.0798C15.2138 23.294 13.7609 21.841 11.9751 21.841H10.8461V19.5823H11.9751C13.761 19.5823 15.2138 18.1294 15.2138 16.3436C15.2138 14.5578 13.7609 13.1048 11.9751 13.1048H10.8461V10.8458H11.9751C13.761 10.8458 15.2138 9.39291 15.2138 7.60711C15.2138 5.82131 13.7609 4.36837 11.9751 4.36837H10.8461V2.10938H33.7019C34.2844 2.10938 34.7566 1.63716 34.7566 1.05469C34.7566 0.472219 34.2844 0 33.7019 0H9.79145C9.20898 0 8.73676 0.472219 8.73676 1.05469V4.36837H7.60684C5.82104 4.36837 4.3681 5.82131 4.3681 7.60711C4.3681 9.39291 5.82104 10.8458 7.60684 10.8458H8.73676V13.1046H7.60684C5.82104 13.1046 4.3681 14.5575 4.3681 16.3433C4.3681 18.1292 5.82104 19.582 7.60684 19.582H8.73676V21.8407H7.60684C5.82104 21.8407 4.3681 23.2937 4.3681 25.0795C4.3681 26.8653 5.82104 28.3182 7.60684 28.3182H8.73676V30.5769H7.60684C5.82104 30.5769 4.3681 32.0299 4.3681 33.8157C4.3681 35.6016 5.82104 37.0544 7.60684 37.0544H8.73676V39.3131H7.60684C5.82104 39.3131 4.3681 40.7661 4.3681 42.5519C4.3681 44.3377 5.82104 45.7906 7.60684 45.7906H8.73676V48.0493H7.60684C5.82104 48.0493 4.3681 49.5022 4.3681 51.288C4.3681 53.0738 5.82104 54.5268 7.60684 54.5268H8.73676V62.2079C8.73676 62.7903 9.20898 63.2625 9.79145 63.2625H13.1046V66.5771C13.1046 67.1595 13.5768 67.6318 14.1593 67.6318H17.4724V70.9449C17.4724 71.5274 17.9446 71.9996 18.5271 71.9996H43.9914C44.5739 71.9996 45.0461 71.5274 45.0461 70.9449C45.0461 70.3624 44.5739 69.8902 43.9914 69.8902H19.5818V67.6318H62.208C62.7905 67.6318 63.2627 67.1595 63.2627 66.5771V33.93C63.2627 33.3475 62.7905 32.8753 62.208 32.8753C61.6255 32.8753 61.1533 33.3475 61.1533 33.93V65.5228H15.2139V63.263H57.8402C58.4227 63.263 58.8949 62.7907 58.8949 62.2083V6.47719H61.1533V29.3344C61.1533 29.9168 61.6255 30.3891 62.208 30.3891C62.7905 30.3891 63.2627 29.9168 63.2627 29.3344V10.8464H65.5225V69.8906H48.5885C48.006 69.8906 47.5338 70.3628 47.5338 70.9453C47.5338 71.5278 48.006 72 48.5885 72H66.5772C67.1597 72 67.6319 71.5278 67.6319 70.9453V9.79172C67.6319 9.20925 67.1597 8.73703 66.5772 8.73703ZM6.47748 7.60711C6.47748 6.98442 6.98415 6.47775 7.60684 6.47775H11.9749C12.5976 6.47775 13.1043 6.98442 13.1043 7.60711C13.1043 8.2298 12.5976 8.73647 11.9749 8.73647H7.60684C6.98415 8.73647 6.47748 8.2298 6.47748 7.60711ZM6.47748 16.3434C6.47748 15.7208 6.98415 15.2141 7.60684 15.2141H11.9749C12.5976 15.2141 13.1043 15.7208 13.1043 16.3434C13.1043 16.9661 12.5976 17.4728 11.9749 17.4728H7.60684C6.98415 17.4728 6.47748 16.9661 6.47748 16.3434ZM6.47748 25.0796C6.47748 24.4569 6.98415 23.9503 7.60684 23.9503H11.9749C12.5976 23.9503 13.1043 24.4569 13.1043 25.0796C13.1043 25.7023 12.5976 26.209 11.9749 26.209H7.60684C6.98415 26.209 6.47748 25.7023 6.47748 25.0796ZM6.47748 33.816C6.47748 33.1933 6.98415 32.6866 7.60684 32.6866H11.9749C12.5976 32.6866 13.1043 33.1933 13.1043 33.816C13.1043 34.4386 12.5976 34.9453 11.9749 34.9453H7.60684C6.98415 34.9453 6.47748 34.4386 6.47748 33.816ZM6.47748 42.5523C6.47748 41.9296 6.98415 41.4229 7.60684 41.4229H11.9749C12.5976 41.4229 13.1043 41.9296 13.1043 42.5523C13.1043 43.175 12.5976 43.6816 11.9749 43.6816H7.60684C6.98415 43.6816 6.47748 43.175 6.47748 42.5523ZM6.47748 51.2885C6.47748 50.6658 6.98415 50.1591 7.60684 50.1591H11.9749C12.5976 50.1591 13.1043 50.6658 13.1043 51.2885C13.1043 51.9112 12.5976 52.4178 11.9749 52.4178H7.60684C6.98415 52.4178 6.47748 51.9112 6.47748 51.2885Z" fill="#215679"/>
<path d="M54.5269 16.3434C54.5269 15.761 54.0547 15.2887 53.4723 15.2887H18.5272C17.9448 15.2887 17.4725 15.761 17.4725 16.3434V46.9207C17.4725 47.4975 17.9474 47.9751 18.5272 47.9751H53.4723C54.053 47.9751 54.5269 47.4971 54.5269 46.9207V16.3434ZM52.4176 17.3981V44.3745L36.7455 28.7049C36.3336 28.293 35.6659 28.293 35.2541 28.7049L19.5819 44.3745V17.3981H52.4176ZM21.0738 45.8657L35.9997 30.9421L50.9257 45.8657H21.0738Z" fill="#215679"/>
<path d="M27.2634 30.5054C30.2535 30.5054 32.6862 28.0727 32.6862 25.0826C32.6862 22.0925 30.2535 19.6598 27.2634 19.6598C24.2733 19.6598 21.8406 22.0925 21.8406 25.0826C21.8406 28.0727 24.2733 30.5054 27.2634 30.5054ZM27.2634 21.7692C29.0904 21.7692 30.5768 23.2556 30.5768 25.0826C30.5768 26.9096 29.0904 28.396 27.2634 28.396C25.4364 28.396 23.95 26.9096 23.95 25.0826C23.95 23.2556 25.4364 21.7692 27.2634 21.7692Z" fill="#215679"/>
</g>
<defs>
<clipPath id="clip0_980_1287">
<rect width="72" height="72" fill="white"/>
</clipPath>
</defs>
</svg>
