<svg width="72" height="72" viewBox="0 0 72 72" fill="none" xmlns="http://www.w3.org/2000/svg">
<path d="M5.50276 72C5.08583 72 4.68925 71.7147 4.51637 71.2866C4.51637 71.2663 4.44519 71.1338 4.44519 70.6446V0.968153C4.44519 0.907006 4.44519 0.835669 4.53671 0.652229C4.74009 0.244586 5.11634 0 5.54344 0H67.4114C68.0215 0 68.53 0.489172 68.53 1.07006V53.0446C68.53 53.2076 68.53 53.3707 68.5503 53.5338C68.5808 53.9516 68.4588 54.2064 68.0825 54.5936C62.4184 60.2497 56.7238 65.9363 51.0089 71.6637C50.8563 71.8166 50.6123 71.9898 50.297 71.9898H5.50276V72ZM6.71287 2.93503V69.065L7.37385 69.7274H48.3548L49.0259 69.0548V53.6866C49.0259 53.1159 49.453 52.4943 50.0835 52.4943H65.5606C65.947 52.4943 66.2521 52.1783 66.2521 51.8013V2.95541C66.2521 2.57834 65.947 2.27261 65.5708 2.27261H7.38402L6.71287 2.94522V2.93503ZM51.3139 55.4293V66.5682L51.9444 67.2L52.5647 66.5783L52.3918 67.0064L63.537 55.8675L63.72 55.3987L63.5065 54.9503L63.0896 54.7873H51.9444L51.3139 55.4191V55.4293Z" fill="#215679"/>
<path d="M58.1975 13.7991C58.0319 13.7991 57.857 13.753 57.673 13.6518C57.3877 13.5045 57.1668 13.1455 57.1576 12.8417C57.1576 12.5563 57.1576 12.2802 57.1576 11.9948L56.5687 11.3872H56.0349C55.8417 11.3872 55.6208 11.3872 55.4644 11.332C54.9398 11.1663 54.7466 10.706 54.7466 10.3378C54.7466 9.97878 54.9306 9.52771 55.446 9.36202C55.5932 9.31599 55.7772 9.30678 56.0073 9.30678H56.311C56.403 9.30678 56.5042 9.30678 56.5963 9.30678L57.0472 9.05823L57.13 8.53352L57.1576 8.70843C57.1576 8.41385 57.1576 8.12848 57.1576 7.84311C57.1576 7.54854 57.3601 7.21714 57.6362 7.06065C57.8202 6.95938 58.0043 6.90415 58.1975 6.90415C58.6853 6.90415 59.219 7.27237 59.2374 7.94437C59.2374 8.18371 59.2374 8.43226 59.2374 8.69001L59.8448 9.31599H60.0196H60.4521C60.5902 9.31599 60.7558 9.31599 60.8847 9.35281C61.2251 9.44486 61.492 9.70262 61.6025 10.0524C61.7129 10.4022 61.6301 10.7612 61.3908 11.0374C61.1607 11.3044 60.8663 11.4056 60.3509 11.4056C60.1945 11.4056 60.038 11.4056 59.8724 11.3872L59.2466 11.8475L59.2282 11.9856V12.63C59.2282 12.9614 59.1546 13.4032 58.7497 13.6334C58.5472 13.753 58.3632 13.8083 58.1791 13.8083L58.1975 13.7991Z" fill="#215679"/>
<path d="M11.4612 12.8218C10.8511 12.8218 10.363 12.1821 10.363 11.3824C10.363 10.5027 10.8511 9.86292 11.4612 9.86292H29.9772C30.5873 9.86292 31.0754 10.5027 31.0754 11.3024C31.0754 12.1821 30.5873 12.8218 29.9772 12.8218H11.4612Z" fill="#215679"/>
<path d="M52.3621 24.2057C52.3621 24.2057 52.3325 24.1762 52.3127 24.1762H47.3323C47.3323 24.1762 47.2731 24.2057 47.2533 24.2253C46.8877 25.3052 46.522 26.385 46.1564 27.4551C45.8007 28.4859 44.5358 28.9571 43.6267 28.2993C42.9646 27.8183 42.7571 27.0526 43.0239 26.2672C44.7829 21.1232 46.522 16.038 48.2217 11.0216C48.6565 9.75518 50.3364 9.43122 51.1467 10.5307C51.2554 10.678 51.3838 10.9627 51.5321 11.3946C53.2218 16.3521 54.9116 21.3097 56.6113 26.2672C57.1053 27.6907 55.8207 29.0062 54.4175 28.4564C53.9136 28.2601 53.5973 27.8379 53.4195 27.3177C53.0637 26.2378 52.7179 25.1972 52.3621 24.1959V24.2057ZM48.4391 20.7599C48.4391 20.7599 48.4391 20.7894 48.4589 20.7894H51.1763C51.1763 20.7894 51.206 20.7894 51.206 20.7599L49.8522 16.7743C49.8522 16.7546 49.8324 16.7546 49.8225 16.7546C49.8225 16.7546 49.8225 16.7546 49.8028 16.7743L48.449 20.7501L48.4391 20.7599Z" fill="#215679"/>
<path d="M11.4875 20.7124C10.8685 20.7124 10.363 20.0593 10.363 19.2596C10.363 18.8197 10.4765 18.4599 10.6828 18.18C10.8995 17.9001 11.178 17.7534 11.4875 17.7534H41.7865C42.4055 17.7534 42.911 18.4065 42.911 19.2062C42.911 20.0593 42.4055 20.7124 41.7865 20.7124H11.4875Z" fill="#215679"/>
<path d="M11.4936 28.6026C10.8666 28.6026 10.363 27.9562 10.363 27.1481C10.363 26.6881 10.4864 26.3151 10.7125 26.0416C10.9283 25.7805 11.2058 25.6437 11.5038 25.6437H37.8352C38.4622 25.6437 38.9658 26.2902 38.9658 27.0983C38.9658 27.9562 38.4622 28.6026 37.8352 28.6026H11.4936Z" fill="#215679"/>
<path d="M11.5002 36.4931C10.8696 36.4931 10.363 36.052 10.363 35.5193C10.363 35.228 10.4871 34.9783 10.7145 34.7869C10.9316 34.6121 11.2107 34.5205 11.5002 34.5205H57.5547C58.1853 34.5205 58.6918 34.9617 58.6918 35.4943C58.6918 36.027 58.1749 36.4931 57.5547 36.4931H11.5002Z" fill="#215679"/>
<path d="M23.1541 66.0821C23.0394 66.0821 22.9142 66.0619 22.7787 66.0316C22.7161 66.0215 22.5284 65.9508 22.1529 65.6477C22.1529 65.6477 21.4646 65.1124 21.1726 64.9002L20.7346 64.7487L20.5156 64.779C20.2027 64.8497 19.8168 64.9507 19.431 65.0821C19.1181 65.173 18.8782 65.2235 18.6801 65.2235C18.4194 65.2235 18.2003 65.1528 17.9709 64.981C17.9188 64.9507 17.7415 64.7992 17.512 64.3649C17.3139 64.0012 17.1053 63.6578 16.8967 63.3042L16.2919 62.9608L15.1551 62.8395C14.6336 62.7789 14.4459 62.7082 14.4042 62.6779C13.9558 62.4355 13.7993 62.1425 13.7263 61.3849C13.6846 61.0112 13.6429 60.6475 13.5908 60.2839C13.5178 60.0111 13.3822 59.8394 13.1945 59.7485C12.8399 59.5566 12.4436 59.3445 12.0368 59.1323C11.7031 58.9505 11.5467 58.8192 11.4841 58.7283C11.2025 58.3646 11.1817 58.001 11.3902 57.3545C11.5154 56.9807 11.6197 56.6171 11.7135 56.2332C11.7657 56.0413 11.724 55.8191 11.6093 55.6574C11.286 55.2534 11.0044 54.8998 10.7124 54.5564C10.3891 54.1826 10.2952 53.819 10.4099 53.425C10.4516 53.2735 10.5768 53.0715 10.7437 52.8695C11.0148 52.5462 11.286 52.2129 11.5571 51.8694C11.6927 51.7078 11.7553 51.4856 11.7135 51.2532C11.5884 50.7886 11.4737 50.4047 11.359 50.0209C11.1191 49.243 11.3068 48.7481 11.9638 48.3945C11.9638 48.3945 12.9129 47.8895 13.1945 47.7379C13.4343 47.6268 13.6012 47.3642 13.6012 47.0712C13.6533 46.6773 13.7055 46.2126 13.768 45.7682C13.8202 45.3338 14.0183 44.7479 15.0925 44.657C15.4784 44.6267 15.906 44.5762 16.344 44.5156C16.5734 44.4853 16.7924 44.354 16.928 44.1519C17.1992 43.6772 17.4182 43.2731 17.658 42.8994C17.9188 42.465 18.2421 42.2731 18.7218 42.2731C18.8157 42.2731 19.0555 42.2933 19.4935 42.4246C19.8377 42.5256 20.1923 42.6266 20.5364 42.7175L20.745 42.7478C20.9223 42.7478 21.0996 42.6872 21.2456 42.5761C21.4959 42.3943 21.7462 42.2024 21.9965 42.0104L22.0903 41.9397C22.4449 41.6569 22.6535 41.5458 22.7578 41.5054C22.8934 41.4549 23.0498 41.4246 23.1854 41.4246C23.321 41.4246 23.467 41.4549 23.613 41.5054C23.6964 41.5357 23.8946 41.6468 24.3013 41.9498L25.0939 42.566C25.2295 42.6771 25.4172 42.7377 25.6153 42.7377L25.8448 42.7074C26.1889 42.6266 26.5435 42.5256 26.8981 42.4145C27.2318 42.3236 27.4717 42.2731 27.6385 42.2731C28.2017 42.2731 28.5041 42.4953 28.89 43.2024L28.9943 43.3943C29.1299 43.6469 29.2759 43.8994 29.4323 44.1519C29.5679 44.354 29.7765 44.4954 30.0059 44.5257C30.4544 44.5863 30.9028 44.6368 31.3512 44.6772C31.7058 44.7075 31.904 44.7883 31.9874 44.8287C32.3837 45.0409 32.561 45.3641 32.634 45.9904C32.6757 46.3945 32.7279 46.7783 32.7696 47.1521C32.8009 47.3945 32.9364 47.6066 33.145 47.7278L33.4996 47.9198C33.8125 48.0915 34.1358 48.2531 34.4486 48.4248C34.8658 48.6572 35.0744 48.9501 35.1161 49.3542C35.1161 49.4653 35.1161 49.6875 34.991 50.0613C34.8658 50.4754 34.7407 50.8492 34.6468 51.2128C34.5947 51.4856 34.6677 51.728 34.8449 51.8997C35.0222 52.1422 35.2621 52.4351 35.5124 52.7179C36.0547 53.3543 36.0756 53.718 35.9296 54.1119C35.9087 54.1725 35.8044 54.3847 35.4811 54.7584C35.2204 55.0716 35.0014 55.3342 34.7928 55.5968C34.6364 55.7787 34.5842 56.0514 34.6677 56.2938C34.7719 56.6777 34.8971 57.1019 35.0327 57.5464C35.137 57.8697 35.137 58.0515 35.1161 58.1323C35.0327 58.6071 34.7824 58.8798 34.1358 59.1929L33.8751 59.3344C33.6352 59.4657 33.3953 59.5869 33.1659 59.7182C32.9677 59.8091 32.8009 60.0314 32.7696 60.2839C32.7174 60.698 32.6549 61.1122 32.6236 61.5365C32.5923 61.89 32.5193 62.0718 32.488 62.1324C32.2377 62.5668 31.9248 62.7385 31.2261 62.8092C30.7985 62.8496 30.3918 62.9002 30.0059 62.9507C29.7765 62.9911 29.6096 63.1022 29.4845 63.2537L28.744 64.5265C28.4937 64.9608 28.1704 65.173 27.722 65.2033H27.7115C27.5343 65.2033 27.2944 65.173 26.8981 65.0517C26.5331 64.9406 26.1576 64.8396 25.7926 64.7487L25.6153 64.7285L25.365 64.7689L25.1877 64.8598C24.8749 65.0922 24.5724 65.3245 24.2804 65.5568C23.8424 65.9104 23.54 66.0518 23.2167 66.0518L23.1541 66.0821ZM21.183 62.3143C21.4333 62.3143 21.6315 62.385 21.8609 62.5365C22.1216 62.7183 22.3928 62.9406 22.6952 63.183L23.1437 63.3345L23.5608 63.1931C23.8528 62.9709 24.124 62.7587 24.4056 62.5567C24.635 62.385 24.8749 62.3042 25.1356 62.3042C25.2712 62.3042 25.4067 62.3244 25.5528 62.3648L26.4809 62.6173L26.6791 62.6476C26.9398 62.6476 27.1797 62.5163 27.3152 62.3042L27.4925 61.991C27.8993 61.2435 28.1183 60.9102 28.7649 60.8395L29.7869 60.7283L30.4022 60.0718C30.4231 59.7586 30.4648 59.395 30.5274 59.0212C30.5899 58.5869 30.8402 58.3848 31.4868 58.0414C31.6641 57.9505 31.8414 57.8596 32.0083 57.7686C32.2899 57.6373 32.4359 57.3141 32.3733 57.011C32.3316 56.8494 32.2899 56.7282 32.2481 56.607C32.0396 55.9201 31.9248 55.4756 32.2169 55.0716C32.4254 54.7887 32.6653 54.4958 32.9364 54.1826L33.0929 53.7584L32.8843 53.2836C32.6966 53.0715 32.488 52.7987 32.2899 52.5462C32.0083 52.1826 31.9561 51.829 32.123 51.2936C32.2169 51.0209 32.2899 50.7583 32.3524 50.5057L31.9144 49.7077C31.6641 49.5764 31.3408 49.4047 31.0384 49.2228C30.7255 49.041 30.5586 48.7885 30.5065 48.4349C30.4544 48.1218 30.4231 47.7682 30.3814 47.4046L29.693 46.7884C29.3906 46.7581 29.0256 46.7177 28.671 46.6672C28.4103 46.6369 28.0244 46.5157 27.6803 45.8894C27.5551 45.6469 27.4195 45.4146 27.2735 45.1924L26.6582 44.859C26.6582 44.859 26.5539 44.859 26.5122 44.8691L26.1055 44.9803C25.7405 45.0813 25.3859 45.1823 25.0835 45.1823C24.8332 45.1823 24.6246 45.1116 24.4056 44.9601C24.1866 44.7984 23.9676 44.6368 23.7381 44.4651L23.5608 44.3237L23.1124 44.1721C22.9559 44.1721 22.8099 44.2226 22.6848 44.3035C22.3511 44.5762 22.0695 44.7984 21.7879 44.9803C21.5898 45.1116 21.3916 45.1823 21.1726 45.1823C21.0683 45.1823 20.964 45.1722 20.8389 45.1419C20.5156 45.0712 20.1714 44.9803 19.8064 44.8691L19.5874 44.8388C19.2954 44.8388 19.0451 45.0106 18.9408 45.2732L18.8574 45.4146C18.7218 45.6368 18.5966 45.8591 18.4715 46.0813C18.2525 46.4652 17.9292 46.6369 17.3347 46.6975C17.0532 46.7278 16.7612 46.7581 16.49 46.7985L15.9581 47.1723L15.8956 47.3642C15.8643 47.6268 15.8225 47.9097 15.7913 48.1925C15.7391 48.7582 15.5514 49.0612 15.103 49.2936C14.8005 49.4552 14.5085 49.6067 14.2269 49.7582L13.9036 50.5461L14.1643 51.425C14.3729 52.1118 14.1018 52.4553 13.4656 53.1826L13.3092 53.3543L13.1632 53.8695L13.5073 54.3342L13.3092 54.1725L13.4969 54.3948C14.1018 55.0918 14.3625 55.4352 14.1539 56.1221C14.1539 56.1221 13.9453 56.7989 13.8932 57.011L14.2582 57.7787C14.5711 57.9404 14.8839 58.1121 15.1968 58.2939C15.687 58.5767 15.7495 58.9909 15.833 59.7485C15.8434 59.8899 15.8643 60.0415 15.8851 60.1829L16.5526 60.7486C16.855 60.7688 17.22 60.8092 17.5955 60.8698C18.1691 60.9506 18.3881 61.3041 18.7635 61.9809C18.8365 62.1021 18.8991 62.2335 18.9825 62.3547L19.577 62.6779L19.7334 62.6577C19.8898 62.6173 20.0463 62.5769 20.1923 62.5365C20.5573 62.4355 20.8702 62.3446 21.1622 62.3446L21.183 62.3143Z" fill="#215679"/>
<path d="M20.3443 51.2782C19.7342 51.2782 19.2397 50.8684 19.2397 50.3538V50.2299C19.2397 49.7249 19.7342 49.3151 20.3549 49.3151H26.0254C26.6356 49.3151 27.1301 49.7344 27.1301 50.249V50.3729C27.1301 50.8779 26.6356 51.2877 26.0149 51.2877H20.3443V51.2782Z" fill="#215679"/>
<path d="M20.3458 58.1917C19.7348 58.1917 19.2397 57.7741 19.2397 57.2676V57.1432C19.2397 56.6367 19.7348 56.2191 20.3458 56.2191H26.024C26.635 56.2191 27.1301 56.6367 27.1301 57.1432V57.2676C27.1301 57.7741 26.635 58.1917 26.024 58.1917H20.3458Z" fill="#215679"/>
</svg>
