<svg width="154" height="154" viewBox="0 0 154 154" fill="none" xmlns="http://www.w3.org/2000/svg">
<g opacity="0.2">
<circle cx="5.90225" cy="5.48574" r="4.98574" fill="#215679" fill-opacity="0.6"/>
<circle cx="5.90225" cy="34.0912" r="4.98574" fill="#215679" fill-opacity="0.6"/>
<circle cx="5.90225" cy="62.6967" r="4.98574" fill="#215679" fill-opacity="0.6"/>
<circle cx="5.90225" cy="91.3031" r="4.98574" fill="#215679" fill-opacity="0.6"/>
<circle cx="5.90225" cy="119.909" r="4.98574" fill="#215679" fill-opacity="0.6"/>
<circle cx="5.90225" cy="148.514" r="4.98574" fill="#215679" fill-opacity="0.6"/>
<circle cx="34.508" cy="5.48574" r="4.98574" fill="#215679" fill-opacity="0.6"/>
<circle cx="34.508" cy="34.0912" r="4.98574" fill="#215679" fill-opacity="0.6"/>
<circle cx="34.508" cy="62.6967" r="4.98574" fill="#215679" fill-opacity="0.6"/>
<circle cx="34.508" cy="91.3031" r="4.98574" fill="#215679" fill-opacity="0.6"/>
<circle cx="34.508" cy="119.909" r="4.98574" fill="#215679" fill-opacity="0.6"/>
<circle cx="34.508" cy="148.514" r="4.98574" fill="#215679" fill-opacity="0.6"/>
<circle cx="63.1137" cy="5.48574" r="4.98574" fill="#215679" fill-opacity="0.6"/>
<circle cx="63.1137" cy="34.0912" r="4.98574" fill="#215679" fill-opacity="0.6"/>
<circle cx="63.1137" cy="62.6967" r="4.98574" fill="#215679" fill-opacity="0.6"/>
<circle cx="63.1137" cy="91.3031" r="4.98574" fill="#215679" fill-opacity="0.6"/>
<circle cx="63.1137" cy="119.909" r="4.98574" fill="#215679" fill-opacity="0.6"/>
<circle cx="63.1137" cy="148.514" r="4.98574" fill="#215679" fill-opacity="0.6"/>
<circle cx="91.7194" cy="5.48574" r="4.98574" fill="#215679" fill-opacity="0.6"/>
<circle cx="120.325" cy="5.48574" r="4.98574" fill="#215679" fill-opacity="0.6"/>
<circle cx="148.931" cy="5.48574" r="4.98574" fill="#215679" fill-opacity="0.6"/>
<circle cx="91.7194" cy="34.0912" r="4.98574" fill="#215679" fill-opacity="0.6"/>
<circle cx="120.325" cy="34.0912" r="4.98574" fill="#215679" fill-opacity="0.6"/>
<circle cx="148.931" cy="34.0912" r="4.98574" fill="#215679" fill-opacity="0.6"/>
<circle cx="91.7194" cy="62.6967" r="4.98574" fill="#215679" fill-opacity="0.6"/>
<circle cx="120.325" cy="62.6967" r="4.98574" fill="#215679" fill-opacity="0.6"/>
<circle cx="148.931" cy="62.6967" r="4.98574" fill="#215679" fill-opacity="0.6"/>
<circle cx="91.7194" cy="91.3031" r="4.98574" fill="#215679" fill-opacity="0.6"/>
<circle cx="91.7194" cy="119.909" r="4.98574" fill="#215679" fill-opacity="0.6"/>
<circle cx="91.7194" cy="148.514" r="4.98574" fill="#215679" fill-opacity="0.6"/>
<circle cx="120.325" cy="91.3031" r="4.98574" fill="#215679" fill-opacity="0.6"/>
<circle cx="120.325" cy="119.909" r="4.98574" fill="#215679" fill-opacity="0.6"/>
<circle cx="120.325" cy="148.514" r="4.98574" fill="#215679" fill-opacity="0.6"/>
<circle cx="148.931" cy="91.3031" r="4.98574" fill="#215679" fill-opacity="0.6"/>
<circle cx="148.931" cy="119.909" r="4.98574" fill="#215679" fill-opacity="0.6"/>
<circle cx="148.931" cy="148.514" r="4.98574" fill="#215679" fill-opacity="0.6"/>
</g>
</svg>
