<svg width="270" height="266" viewBox="0 0 270 266" fill="none" xmlns="http://www.w3.org/2000/svg">
<path d="M126.466 0H131.928L0 130.228V124.516L126.466 0Z" fill="#215679" fill-opacity="0.3"/>
<path d="M0.887046 146.421L148.663 1.11523C148.72 1.06029 148.788 1.01807 148.863 0.991432C148.938 0.964797 149.018 0.954369 149.097 0.960855L152.925 1.21815C153.032 1.22537 153.135 1.26324 153.221 1.32716C153.308 1.39107 153.373 1.47829 153.41 1.57821C153.447 1.67813 153.453 1.78645 153.429 1.89001C153.405 1.99357 153.35 2.08792 153.272 2.16159L2.12213 151.344C2.04783 151.415 1.95498 151.464 1.85398 151.486C1.75299 151.507 1.64783 151.501 1.55031 151.467C1.45279 151.433 1.36675 151.373 1.30183 151.294C1.23691 151.215 1.19569 151.119 1.18277 151.018L0.730485 146.867C0.721302 146.786 0.730591 146.704 0.757675 146.626C0.784759 146.549 0.828956 146.479 0.887046 146.421Z" fill="#215679" fill-opacity="0.3"/>
<path d="M4.22718 102.783C3.96045 103.046 3.83288 102.989 3.84447 102.612C4.00104 99.5411 4.55769 96.4192 6.92349 94.0863C37.4238 64.0795 66.7991 35.1419 95.0496 7.27348C97.253 5.10073 100.181 3.9972 103.834 3.96289C104.356 3.96289 104.432 4.14586 104.06 4.5118L4.22718 102.783Z" fill="#215679" fill-opacity="0.3"/>
<path d="M5.35795 170.041L4.33161 166.73C4.30354 166.637 4.30167 166.539 4.32619 166.445C4.35071 166.351 4.4007 166.266 4.47077 166.198L168.807 4.37396C168.877 4.30782 168.965 4.26174 169.06 4.2406C169.155 4.21946 169.254 4.22405 169.346 4.25389L172.686 5.30024C172.775 5.32818 172.856 5.3786 172.919 5.44651C172.983 5.51442 173.027 5.59749 173.048 5.68752C173.07 5.77755 173.066 5.87145 173.04 5.95995C173.013 6.04845 172.963 6.1285 172.895 6.19221L6.26252 170.264C6.19671 170.33 6.11429 170.379 6.02351 170.404C5.93272 170.43 5.83675 170.431 5.74518 170.409C5.65361 170.386 5.56965 170.34 5.5017 170.276C5.43375 170.211 5.38418 170.13 5.35795 170.041Z" fill="#215679" fill-opacity="0.3"/>
<path d="M189.299 11.019L188.266 10.0001C187.763 9.50439 186.948 9.5044 186.446 10.0001L10.2282 183.763C9.72547 184.259 9.72546 185.063 10.2282 185.558L11.2614 186.577C11.7641 187.073 12.5792 187.073 13.0819 186.577L189.299 12.8141C189.802 12.3184 189.802 11.5147 189.299 11.019Z" fill="#215679" fill-opacity="0.3"/>
<path d="M205.034 19.6562L203.165 17.8126C202.873 17.5245 202.399 17.5245 202.107 17.8126L17.9431 199.411C17.651 199.699 17.651 200.166 17.9431 200.454L19.8128 202.298C20.1049 202.586 20.5785 202.586 20.8706 202.298L205.034 20.6993C205.326 20.4113 205.326 19.9443 205.034 19.6562Z" fill="#215679" fill-opacity="0.3"/>
<path d="M22.3536 59.8302C33.4868 43.3859 47.3047 30.0978 63.8073 19.9659C65.57 18.8795 65.7208 19.0625 64.2596 20.5148L20.5792 63.5696C19.9646 64.1757 19.8544 64.0956 20.2487 63.3294C20.8634 62.163 21.565 60.9966 22.3536 59.8302Z" fill="#215679" fill-opacity="0.3"/>
<path d="M216.272 27.226L27.2526 212.963C27.0689 213.144 27.0684 213.437 27.2515 213.618L29.5599 215.902C29.743 216.084 30.0404 216.084 30.2242 215.904L219.243 30.1664C219.427 29.9859 219.428 29.6926 219.245 29.5114L216.936 27.2272C216.753 27.046 216.456 27.0455 216.272 27.226Z" fill="#215679" fill-opacity="0.3"/>
<path d="M231.317 39.7454L229.62 38.0716C229.308 37.7635 228.801 37.7635 228.488 38.0716L38.5926 225.322C38.2801 225.631 38.2801 226.13 38.5926 226.438L40.2901 228.112C40.6026 228.42 41.1092 228.42 41.4217 228.112L231.318 40.8613C231.63 40.5532 231.63 40.0536 231.317 39.7454Z" fill="#215679" fill-opacity="0.3"/>
<path d="M239.183 50.6291L51.3781 235.818C50.9026 236.287 50.9026 237.047 51.3781 237.516L52.559 238.68C53.0345 239.149 53.8055 239.149 54.2811 238.68L242.086 53.4916C242.561 53.0227 242.561 52.2624 242.086 51.7935L240.905 50.6291C240.429 50.1602 239.658 50.1602 239.183 50.6291Z" fill="#215679" fill-opacity="0.3"/>
<path d="M251.697 67.3782L68.2254 248.311C68.0906 248.443 67.9155 248.529 67.727 248.553C67.5385 248.578 67.347 248.541 67.1817 248.448L65.042 247.265C64.9246 247.2 64.824 247.11 64.7481 247C64.6722 246.891 64.623 246.766 64.6045 246.634C64.586 246.503 64.5985 246.369 64.6413 246.244C64.684 246.118 64.7557 246.004 64.8507 245.91L249.244 63.8104C249.34 63.7173 249.457 63.6477 249.585 63.6069C249.714 63.566 249.85 63.5552 249.983 63.5752C250.116 63.5951 250.243 63.6454 250.353 63.7219C250.464 63.7984 250.554 63.8992 250.618 64.0162L251.853 66.3834C251.937 66.5443 251.967 66.7272 251.939 66.9058C251.911 67.0845 251.826 67.2498 251.697 67.3782Z" fill="#215679" fill-opacity="0.3"/>
<path d="M259.455 82.6969L83.8816 256.1C83.7997 256.177 83.695 256.227 83.5826 256.242C83.4701 256.258 83.3556 256.238 83.2554 256.185L80.1242 254.539C80.0479 254.5 79.9823 254.443 79.9328 254.374C79.8832 254.305 79.8511 254.225 79.8392 254.141C79.8273 254.057 79.8359 253.971 79.8643 253.891C79.8926 253.811 79.94 253.739 80.0024 253.681L257.629 79.0261C257.694 78.9633 257.774 78.9177 257.861 78.8936C257.949 78.8695 258.041 78.8676 258.13 78.8882C258.218 78.9087 258.3 78.951 258.368 79.0111C258.435 79.0712 258.486 79.1472 258.516 79.2319L259.577 82.1308C259.614 82.2267 259.623 82.3312 259.601 82.4316C259.579 82.5321 259.529 82.6242 259.455 82.6969Z" fill="#215679" fill-opacity="0.3"/>
<path d="M97.137 260.233L263.909 95.8532C263.974 95.7902 264.055 95.7453 264.144 95.723C264.232 95.7007 264.326 95.7018 264.414 95.7261C264.502 95.7504 264.582 95.7972 264.646 95.8616C264.71 95.9261 264.756 96.006 264.778 96.0934L265.735 99.627C265.758 99.7146 265.758 99.8068 265.733 99.8941C265.709 99.9815 265.661 100.061 265.596 100.124L101.329 261.811C101.267 261.873 101.189 261.918 101.104 261.942C101.019 261.966 100.929 261.968 100.842 261.949L97.3806 261.091C97.292 261.068 97.2109 261.023 97.1455 260.96C97.0802 260.897 97.0328 260.818 97.0081 260.731C96.9834 260.644 96.9824 260.553 97.005 260.465C97.0276 260.378 97.0732 260.298 97.137 260.233Z" fill="#215679" fill-opacity="0.3"/>
<path d="M269.162 119.747L121.143 265.362C121.088 265.414 121.023 265.455 120.951 265.482C120.879 265.508 120.802 265.52 120.726 265.516L116.916 265.293C116.81 265.286 116.709 265.249 116.624 265.188C116.539 265.126 116.473 265.042 116.435 264.944C116.397 264.847 116.387 264.741 116.408 264.639C116.428 264.537 116.478 264.442 116.551 264.367L267.91 114.824C267.984 114.753 268.077 114.704 268.178 114.683C268.279 114.661 268.384 114.667 268.481 114.701C268.579 114.735 268.665 114.795 268.73 114.874C268.795 114.954 268.836 115.049 268.849 115.15L269.319 119.301C269.328 119.382 269.319 119.465 269.291 119.542C269.264 119.619 269.22 119.689 269.162 119.747Z" fill="#215679" fill-opacity="0.3"/>
<path d="M268.831 143.3L145.01 265.036C144.511 265.528 143.908 265.791 143.2 265.826L139.356 265.997C138.66 266.031 138.562 265.803 139.06 265.311L269.197 136.884C269.765 136.324 270.032 136.438 269.997 137.227L269.806 141.121C269.761 141.939 269.415 142.713 268.831 143.3Z" fill="#215679" fill-opacity="0.3"/>
<path d="M266.083 165.323C265.37 167.33 265.266 169.628 263.7 171.172C233.513 200.962 203.691 230.494 174.234 259.769C172.077 261.913 169.155 262.393 166.285 262.737C165.171 262.874 165.015 262.554 165.815 261.776L264.813 164.551C266.379 163.007 266.802 163.265 266.083 165.323Z" fill="#215679" fill-opacity="0.3"/>
<path d="M207.495 245.464C204.932 247.088 204.729 246.837 206.886 244.71L249.662 202.358C250.52 201.501 250.63 201.586 249.992 202.616C239.3 219.963 225.134 234.246 207.495 245.464Z" fill="#215679" fill-opacity="0.3"/>
</svg>
