<svg width="257" height="121" viewBox="0 0 257 121" fill="none" xmlns="http://www.w3.org/2000/svg">
<g clip-path="url(#clip0_678_1114)">
<path fill-rule="evenodd" clip-rule="evenodd" d="M25.489 95.9892C30.3353 93.4588 35.8344 93.6473 40.5187 96.4035C40.6621 96.4885 40.824 96.4885 40.9657 96.4035C41.1091 96.322 41.19 96.1777 41.19 96.0147V84.623C41.19 84.5024 41.1512 84.4005 41.0703 84.3156C35.244 78.1273 26.1773 76.3374 18.4752 79.8221C18.2542 79.924 18.1513 80.1838 18.2475 80.4131L24.8717 95.7667C24.924 95.8839 25.0117 95.9688 25.1348 96.0147C25.2512 96.0571 25.3743 96.0469 25.489 95.9892ZM58.2337 95.9892C53.3875 93.4588 47.8851 93.6473 43.2041 96.4035C43.0607 96.4885 42.8988 96.4885 42.7571 96.4035C42.6137 96.322 42.5328 96.1777 42.5328 96.0147V84.623C42.5328 84.5024 42.5715 84.4005 42.6559 84.3156C48.4788 78.1273 57.5455 76.3374 65.2476 79.8221C65.4685 79.924 65.5714 80.1838 65.4753 80.4131L58.8511 95.7667C58.7988 95.8839 58.7111 95.9688 58.5914 96.0147C58.4682 96.0571 58.3484 96.0469 58.2337 95.9892Z" fill="#56CC99"/>
<path fill-rule="evenodd" clip-rule="evenodd" d="M44.432 100.087C48.2307 96.7691 53.4312 97.4654 57.6617 99.5033C57.8018 99.5712 57.9569 99.5627 58.0902 99.4778C58.2268 99.3963 58.3011 99.2587 58.3011 99.0991V97.822C58.3011 97.6556 58.2201 97.5112 58.07 97.4263C53.1512 94.643 47.4548 94.9962 42.8193 98.25C42.401 98.5472 41.3265 98.5472 40.9048 98.25C36.2694 94.9979 30.5764 94.6447 25.6542 97.4263C25.5074 97.5112 25.4231 97.6556 25.4231 97.822V99.0991C25.4231 99.2587 25.4973 99.3963 25.6339 99.4778C25.7672 99.5627 25.9224 99.5729 26.0658 99.5033C30.293 97.4654 35.4935 96.7691 39.2922 100.087C39.2956 100.091 39.3023 100.094 39.3057 100.098C40.785 101.3 42.9391 101.3 44.4185 100.098C44.4218 100.094 44.4286 100.091 44.432 100.087Z" fill="#215679"/>
<path fill-rule="evenodd" clip-rule="evenodd" d="M59.6792 97.2273L64.986 84.922C65.0703 84.7267 65.2778 84.618 65.4887 84.6605C65.6961 84.7064 65.8429 84.8864 65.8429 85.102V89.1387C65.8429 89.2168 65.826 89.2864 65.7906 89.3544L60.4805 99.1684C60.3793 99.3518 60.1785 99.4435 59.9778 99.3909C59.7804 99.3382 59.6438 99.1616 59.6438 98.9527V97.4073C59.6438 97.3428 59.6539 97.2868 59.6792 97.2273Z" fill="#215679"/>
<path fill-rule="evenodd" clip-rule="evenodd" d="M24.0467 97.2273L18.74 84.922C18.6556 84.7267 18.4481 84.618 18.2407 84.6605C18.0298 84.7064 17.8831 84.8864 17.8831 85.102V89.1387C17.8831 89.2168 17.8999 89.2864 17.9387 89.3544L23.2455 99.1684C23.3467 99.3518 23.5474 99.4435 23.7482 99.3909C23.9455 99.3382 24.0855 99.1616 24.0855 98.9527V97.4073C24.0855 97.3428 24.072 97.2868 24.0467 97.2273Z" fill="#215679"/>
<path fill-rule="evenodd" clip-rule="evenodd" d="M1.52567 40.7685C18.846 50.5078 30.6757 43.8643 37.0216 20.8433C37.17 20.2879 37.7031 19.9313 38.2698 20.0111C38.8383 20.0859 39.2566 20.5597 39.2651 21.132C39.6868 49.2358 24.7381 74.7821 1.4194 88.4103C0.9201 88.7007 0.294287 88.5768 -0.0599469 88.1199C-0.417554 87.6563 -0.375384 87.0093 0.0378891 86.5984C7.70621 78.9139 10.8791 70.6741 9.55329 61.8825C9.51786 61.6311 9.641 61.3917 9.87041 61.2779C10.0981 61.1675 10.3596 61.215 10.535 61.4019C12.0785 63.0474 13.6 64.7134 15.1029 66.4048C15.2919 66.6103 15.5888 66.6561 15.83 66.5101C16.0661 66.3624 16.164 66.072 16.0628 65.8087C12.657 57.0986 7.66404 50.805 0.0733125 42.499C-0.773475 41.5717 0.43092 40.1571 1.52398 40.7719L1.52567 40.7685Z" fill="#215679"/>
<path fill-rule="evenodd" clip-rule="evenodd" d="M22.9082 36.5519C20.9009 39.3896 16.9874 40.0502 14.1721 38.0276C11.3568 36.0068 10.7006 32.0703 12.7096 29.2326C14.7169 26.3982 18.627 25.7376 21.4423 27.7602C24.261 29.7794 24.9172 33.7176 22.9082 36.5519Z" fill="#215679"/>
<path fill-rule="evenodd" clip-rule="evenodd" d="M82.1983 40.7685C64.8779 50.5078 53.0465 43.8643 46.7057 20.8433C46.5539 20.2879 46.0209 19.9313 45.4541 20.0111C44.8857 20.0859 44.4673 20.5597 44.4589 21.132C44.0372 49.2358 58.9859 74.7821 82.3046 88.4103C82.8072 88.7007 83.4297 88.5768 83.7839 88.1199C84.1415 87.6563 84.0993 87.0093 83.6861 86.5984C76.0178 78.9139 72.8482 70.6741 74.1707 61.8825C74.2061 61.6311 74.083 61.3917 73.8535 61.2779C73.6292 61.1675 73.3644 61.215 73.1923 61.4019C71.6489 63.0474 70.124 64.7134 68.621 66.4048C68.4355 66.6103 68.1352 66.6561 67.894 66.5101C67.6578 66.3624 67.56 66.072 67.6629 65.8087C71.0652 57.0986 76.0616 50.805 83.649 42.499C84.4957 41.5717 83.2914 40.1571 82.1983 40.7719V40.7685Z" fill="#215679"/>
<path fill-rule="evenodd" clip-rule="evenodd" d="M60.8178 36.5519C62.8251 39.3896 66.7386 40.0502 69.5539 38.0276C72.3692 36.0068 73.0288 32.0703 71.0164 29.2326C69.0107 26.3982 65.099 25.7376 62.2837 27.7602C59.465 29.7794 58.8088 33.7176 60.8178 36.5519Z" fill="#215679"/>
<path fill-rule="evenodd" clip-rule="evenodd" d="M42.7149 56.193L44.5536 61.9279C44.6767 62.3066 45.0107 62.5546 45.4071 62.5512L51.3987 62.541C51.7917 62.541 52.1325 62.7855 52.2522 63.1642C52.3754 63.5429 52.2455 63.942 51.925 64.173L47.0754 67.707C46.7549 67.9413 46.625 68.3404 46.7481 68.7191L48.6104 74.4506C48.7335 74.8293 48.6036 75.2284 48.2865 75.4594C47.966 75.6937 47.5494 75.6937 47.2289 75.4594L42.3927 71.9067C42.0722 71.6723 41.6556 71.6723 41.3351 71.9067L36.4989 75.4594C36.1818 75.6937 35.7618 75.6937 35.4413 75.4594C35.1242 75.2267 34.9943 74.8293 35.1208 74.4506L36.9797 68.7191C37.1028 68.3404 36.9729 67.9413 36.6525 67.707L31.8028 64.173C31.4823 63.9403 31.3524 63.5429 31.4756 63.1642C31.5987 62.7855 31.9327 62.541 32.3291 62.541L38.3207 62.5512C38.7171 62.5546 39.0511 62.3066 39.1743 61.9279L41.0129 56.193C41.136 55.8143 41.47 55.5664 41.8664 55.5664C42.2628 55.5664 42.5968 55.8143 42.72 56.193H42.7149Z" fill="#56CC99"/>
<path d="M132.397 55.631C132.397 56.2729 132.118 56.5939 131.56 56.5939H118.846V56.6737C118.846 57.2307 118.912 57.7742 119.045 58.304C119.179 58.8338 119.405 59.2975 119.724 59.6948C120.042 60.0922 120.461 60.4115 120.979 60.6492C121.496 60.8887 122.154 61.0076 122.95 61.0076C123.588 61.0076 124.266 60.994 124.983 60.9668C125.7 60.9413 126.41 60.9142 127.115 60.887C127.819 60.8598 128.476 60.8276 129.089 60.7868C129.699 60.746 130.206 60.7002 130.604 60.6458H130.723C131.228 60.6458 131.481 60.8615 131.481 61.2895V64.3615C131.481 64.6859 131.427 64.9271 131.32 65.0884C131.214 65.2497 130.988 65.372 130.642 65.4518C129.367 65.7762 128.117 66.0173 126.896 66.1786C125.673 66.34 124.199 66.4215 122.471 66.4215C121.275 66.4215 120.079 66.2466 118.885 65.9001C117.689 65.5537 116.613 64.978 115.657 64.1747C114.7 63.3715 113.929 62.3084 113.346 60.9855C112.76 59.6609 112.469 58.0357 112.469 56.1099V53.301C112.469 51.6962 112.695 50.2392 113.147 48.9281C113.599 47.6188 114.255 46.5082 115.119 45.5979C115.982 44.6894 117.038 43.9863 118.286 43.4921C119.535 42.9979 120.957 42.75 122.551 42.75C124.145 42.75 125.599 43.0183 126.835 43.5516C128.07 44.0865 129.101 44.8218 129.924 45.7592C130.747 46.695 131.364 47.8056 131.778 49.0895C132.189 50.3733 132.395 51.7777 132.395 53.3027V55.6293L132.397 55.631ZM126.1 52.4214C126.1 50.9235 125.781 49.8078 125.143 49.0708C124.506 48.3354 123.629 47.9669 122.514 47.9669C121.399 47.9669 120.508 48.3422 119.843 49.0912C119.179 49.8401 118.846 50.9507 118.846 52.4214V52.581H126.1V52.4214Z" fill="#212121"/>
<path d="M155.95 57.6388C155.95 58.7087 155.764 59.765 155.391 60.8094C155.019 61.8521 154.401 62.7895 153.538 63.6182C152.674 64.447 151.551 65.1228 150.171 65.6442C148.789 66.1656 147.089 66.4271 145.07 66.4271C143.476 66.4271 142.074 66.3473 140.864 66.1859C139.655 66.0246 138.547 65.8123 137.536 65.544C137.324 65.4914 137.138 65.398 136.978 65.2638C136.818 65.1296 136.739 64.9564 136.739 64.7424V60.8111C136.739 60.5173 136.804 60.3169 136.938 60.2099C137.071 60.1029 137.243 60.0486 137.455 60.0486H137.575C137.973 60.1029 138.525 60.1556 139.228 60.2099C139.932 60.2642 140.655 60.3101 141.401 60.3509C142.145 60.3916 142.855 60.4307 143.533 60.4714C144.211 60.5122 144.749 60.5309 145.147 60.5309C146.529 60.5309 147.465 60.3033 147.958 59.8482C148.448 59.3931 148.695 58.6849 148.695 57.722C148.695 57.1344 148.516 56.6318 148.157 56.2174C147.797 55.803 147.101 55.2885 146.065 54.672L140.566 51.3826C139.636 50.8204 138.872 50.2464 138.275 49.6572C137.678 49.0696 137.199 48.4531 136.84 47.8112C136.48 47.1693 136.229 46.507 136.082 45.8243C135.936 45.1416 135.863 44.4402 135.863 43.7185C135.863 42.6214 136.028 41.5991 136.361 40.6498C136.693 39.7005 137.258 38.8718 138.054 38.1619C138.852 37.4538 139.901 36.8984 141.204 36.4977C142.506 36.0969 144.127 35.8965 146.065 35.8965C146.782 35.8965 147.559 35.9237 148.396 35.9763C149.233 36.0306 150.036 36.0969 150.807 36.1767C151.578 36.2565 152.294 36.3516 152.959 36.4569C153.622 36.5639 154.142 36.6709 154.513 36.7779C154.673 36.8322 154.811 36.912 154.931 37.019C155.051 37.126 155.11 37.2873 155.11 37.4996V41.5516C155.11 41.7384 155.063 41.8997 154.97 42.0339C154.877 42.168 154.696 42.2342 154.432 42.2342H154.352C154.061 42.2088 153.588 42.1748 152.937 42.134C152.286 42.0933 151.549 42.0474 150.726 41.9931C149.903 41.9404 149.057 41.8929 148.195 41.8521C147.332 41.8114 146.568 41.7927 145.905 41.7927C144.763 41.7927 143.958 41.9676 143.494 42.3141C143.029 42.6622 142.798 43.1971 142.798 43.9189C142.798 44.2127 142.838 44.4674 142.917 44.6814C142.997 44.8954 143.137 45.1025 143.336 45.3029C143.535 45.5033 143.806 45.7173 144.152 45.9449C144.496 46.1724 144.935 46.4339 145.468 46.7277L150.569 49.4958C152.642 50.6201 154.055 51.8496 154.813 53.1878C155.57 54.526 155.948 56.0102 155.948 57.6422L155.95 57.6388Z" fill="#212121"/>
<path d="M174.841 64.8996C174.841 65.1951 174.775 65.4006 174.642 65.5212C174.508 65.6418 174.296 65.7419 174.004 65.8218C173.446 65.9559 172.722 66.0884 171.831 66.2225C170.941 66.3567 169.898 66.4229 168.702 66.4229C165.885 66.4229 163.633 65.5534 161.947 63.8145C160.26 62.0755 159.416 59.5621 159.416 56.271V52.9C159.416 49.6106 160.26 47.0955 161.947 45.3565C163.633 43.6175 165.885 42.748 168.702 42.748C169.898 42.748 170.941 42.8143 171.831 42.9484C172.722 43.0826 173.446 43.2168 174.004 43.3492C174.296 43.429 174.508 43.5292 174.642 43.6498C174.775 43.7704 174.841 43.9776 174.841 44.2713V47.8427C174.841 48.0567 174.766 48.2231 174.621 48.3437C174.475 48.4643 174.296 48.5237 174.083 48.5237H174.004C173.26 48.4439 172.55 48.3776 171.872 48.3233C171.194 48.2707 170.284 48.2435 169.143 48.2435C168.69 48.2435 168.265 48.3182 167.867 48.4643C167.469 48.612 167.123 48.865 166.832 49.2268C166.54 49.5885 166.307 50.0691 166.135 50.6702C165.961 51.2714 165.875 52.0152 165.875 52.8966V56.2676C165.875 57.1507 165.961 57.8928 166.135 58.4939C166.307 59.0951 166.54 59.5774 166.832 59.9391C167.123 60.3008 167.469 60.5539 167.867 60.7016C168.265 60.8494 168.69 60.9224 169.143 60.9224C170.284 60.9224 171.195 60.8969 171.872 60.8426C172.55 60.7899 173.26 60.722 174.004 60.6422H174.083C174.296 60.6422 174.475 60.7016 174.621 60.8222C174.766 60.9428 174.841 61.1092 174.841 61.3232V64.8945V64.8996Z" fill="#212121"/>
<path d="M198.514 65.2209C198.514 65.4349 198.428 65.6285 198.254 65.8034C198.08 65.9783 197.888 66.0649 197.675 66.0649H192.853C192.64 66.0649 192.455 65.9783 192.294 65.8051C192.134 65.6319 192.055 65.4383 192.055 65.2243V51.8933C192.055 51.1987 192.014 50.6128 191.935 50.1322C191.856 49.6516 191.709 49.2644 191.496 48.9723C191.284 48.6786 190.985 48.4714 190.599 48.3508C190.213 48.2302 189.715 48.1708 189.104 48.1708C188.494 48.1708 187.922 48.2914 187.311 48.5308C186.701 48.7703 186.05 49.0776 185.358 49.4512V65.2243C185.358 65.4383 185.279 65.6319 185.119 65.8051C184.958 65.9783 184.773 66.0649 184.56 66.0649H179.738C179.525 66.0649 179.333 65.9783 179.159 65.8034C178.985 65.6302 178.899 65.4366 178.899 65.2209V36.0913C178.899 35.8774 178.978 35.6906 179.139 35.5292C179.299 35.3679 179.483 35.2881 179.697 35.2881H184.558C184.771 35.2881 184.957 35.3696 185.117 35.5292C185.275 35.6906 185.356 35.8774 185.356 36.0913V44.5689C186.365 43.8964 187.335 43.4243 188.266 43.1542C189.196 42.8842 190.258 42.7501 191.454 42.7501C192.89 42.7501 194.065 42.9912 194.981 43.4718C195.897 43.9541 196.616 44.6028 197.134 45.418C197.652 46.2348 198.011 47.1977 198.21 48.3066C198.409 49.4173 198.509 50.6009 198.509 51.8576V65.2192L198.514 65.2209Z" fill="#212121"/>
<path d="M222.666 55.993C222.666 57.5978 222.446 59.043 222.006 60.3268C221.566 61.6107 220.928 62.7009 220.09 63.5976C219.252 64.4943 218.212 65.1888 216.974 65.6847C215.736 66.1789 214.306 66.4268 212.681 66.4268C211.057 66.4268 209.627 66.1789 208.388 65.6847C207.15 65.1905 206.106 64.4943 205.254 63.5976C204.402 62.7009 203.756 61.6107 203.318 60.3268C202.877 59.043 202.658 57.5978 202.658 55.993V53.1841C202.658 51.5793 202.877 50.1341 203.318 48.8503C203.756 47.5664 204.402 46.4762 205.254 45.5812C206.106 44.6845 207.152 43.99 208.388 43.4941C209.627 42.9999 211.057 42.752 212.681 42.752C214.306 42.752 215.736 42.9999 216.974 43.4941C218.212 43.99 219.25 44.6845 220.09 45.5812C220.928 46.4778 221.568 47.5681 222.006 48.8503C222.445 50.1341 222.666 51.5793 222.666 53.1841V55.993ZM216.21 53.1841C216.21 49.9218 215.034 48.2898 212.683 48.2898C211.521 48.2898 210.635 48.6974 210.028 49.5143C209.421 50.3311 209.115 51.5538 209.115 53.1858V55.9947C209.115 57.6267 209.419 58.8579 210.028 59.6866C210.635 60.5153 211.521 60.9297 212.683 60.9297C215.034 60.9297 216.21 59.2841 216.21 55.9947V53.1858V53.1841Z" fill="#212121"/>
<path d="M246.14 55.993C246.14 57.5978 245.92 59.043 245.48 60.3268C245.04 61.6107 244.402 62.7009 243.564 63.5976C242.725 64.4943 241.686 65.1888 240.448 65.6847C239.21 66.1789 237.78 66.4268 236.155 66.4268C234.531 66.4268 233.1 66.1789 231.862 65.6847C230.624 65.1905 229.58 64.4943 228.728 63.5976C227.876 62.7009 227.23 61.6107 226.792 60.3268C226.351 59.043 226.132 57.5978 226.132 55.993V53.1841C226.132 51.5793 226.351 50.1341 226.792 48.8503C227.23 47.5664 227.876 46.4762 228.728 45.5812C229.58 44.6845 230.626 43.99 231.862 43.4941C233.1 42.9999 234.531 42.752 236.155 42.752C237.78 42.752 239.21 42.9999 240.448 43.4941C241.686 43.99 242.724 44.6845 243.564 45.5812C244.402 46.4778 245.041 47.5681 245.48 48.8503C245.919 50.1341 246.14 51.5793 246.14 53.1841V55.993ZM239.684 53.1841C239.684 49.9218 238.508 48.2898 236.157 48.2898C234.995 48.2898 234.109 48.6974 233.502 49.5143C232.895 50.3311 232.589 51.5538 232.589 53.1858V55.9947C232.589 57.6267 232.893 58.8579 233.502 59.6866C234.109 60.5153 234.995 60.9297 236.157 60.9297C238.508 60.9297 239.684 59.2841 239.684 55.9947V53.1858V53.1841Z" fill="#212121"/>
<path d="M256.701 65.2209C256.701 65.4349 256.627 65.6285 256.482 65.8034C256.335 65.9783 256.156 66.0649 255.943 66.0649H251.082C250.869 66.0649 250.677 65.9783 250.503 65.8034C250.33 65.6302 250.244 65.4366 250.244 65.2209V36.0913C250.244 35.8774 250.33 35.6906 250.503 35.5292C250.675 35.3696 250.868 35.2881 251.082 35.2881H255.943C256.156 35.2881 256.335 35.3679 256.482 35.5292C256.627 35.6906 256.701 35.8774 256.701 36.0913V65.2209Z" fill="#212121"/>
<path d="M141.964 82.1717C141.964 82.4791 141.917 82.7882 141.824 83.0955C141.732 83.4029 141.566 83.6797 141.334 83.9243C141.099 84.1688 140.779 84.3658 140.37 84.5153C139.962 84.6647 139.443 84.7394 138.815 84.7394C138.365 84.7394 137.968 84.7207 137.629 84.6817C137.289 84.6426 136.978 84.6019 136.698 84.5594C136.587 84.5424 136.519 84.517 136.494 84.483C136.469 84.449 136.455 84.3981 136.455 84.3285V83.8156C136.455 83.7477 136.475 83.695 136.519 83.6611C136.562 83.6271 136.612 83.6101 136.673 83.6101H136.712C136.857 83.6271 137.02 83.6407 137.203 83.6492C137.385 83.6577 137.572 83.6644 137.764 83.6678C137.955 83.6729 138.142 83.6763 138.326 83.6814C138.508 83.6865 138.672 83.6882 138.817 83.6882C139.2 83.6882 139.517 83.6526 139.767 83.5795C140.018 83.5065 140.215 83.4046 140.36 83.2705C140.505 83.138 140.607 82.9767 140.666 82.7899C140.725 82.6014 140.755 82.3959 140.755 82.1734C140.755 82.0104 140.73 81.8626 140.679 81.7302C140.628 81.5977 140.542 81.467 140.424 81.3379C140.305 81.2088 140.148 81.0747 139.952 80.9337C139.756 80.7928 139.513 80.6314 139.225 80.4514L137.989 79.694C137.402 79.334 136.961 78.9723 136.668 78.6088C136.374 78.2454 136.228 77.8056 136.228 77.2927C136.228 76.5132 136.494 75.9409 137.025 75.5724C137.557 75.2039 138.311 75.0205 139.289 75.0205C139.476 75.0205 139.674 75.0256 139.883 75.0341C140.09 75.0426 140.294 75.0528 140.495 75.0664C140.694 75.0799 140.885 75.0969 141.062 75.1173C141.241 75.1394 141.389 75.1581 141.509 75.175C141.654 75.2005 141.727 75.2735 141.727 75.3941V75.946C141.727 76.0836 141.654 76.1515 141.509 76.1515H141.484C141.204 76.1345 140.861 76.1176 140.456 76.1006C140.053 76.0836 139.664 76.0751 139.289 76.0751C138.626 76.0751 138.147 76.16 137.854 76.3315C137.56 76.5031 137.413 76.824 137.413 77.2944C137.413 77.595 137.523 77.8548 137.744 78.0773C137.965 78.2998 138.316 78.5562 138.8 78.8483L139.971 79.5548C140.335 79.7772 140.645 79.9912 140.898 80.1967C141.153 80.4022 141.361 80.6077 141.521 80.8131C141.683 81.0186 141.796 81.2326 141.865 81.4551C141.932 81.6775 141.966 81.917 141.966 82.1734L141.964 82.1717Z" fill="#212121"/>
<path d="M151.352 84.4434C151.352 84.581 151.279 84.6489 151.134 84.6489H150.382C150.323 84.6489 150.275 84.6302 150.242 84.5912C150.208 84.5521 150.183 84.508 150.166 84.457L149.336 81.5038H146.033L145.217 84.457C145.2 84.508 145.169 84.5538 145.127 84.5912C145.085 84.6302 145.038 84.6489 144.987 84.6489H144.235C144.09 84.6489 144.017 84.581 144.017 84.4434C144.017 84.401 144.022 84.3704 144.031 84.3534L146.391 75.9931C146.441 75.7961 146.516 75.6365 146.613 75.5108C146.711 75.3868 146.819 75.2883 146.939 75.2153C147.059 75.1423 147.184 75.0913 147.315 75.0608C147.447 75.0302 147.571 75.0166 147.691 75.0166C147.811 75.0166 147.934 75.0302 148.061 75.0557C148.189 75.0811 148.312 75.1304 148.43 75.2034C148.55 75.2764 148.658 75.3749 148.756 75.4989C148.853 75.6229 148.928 75.7842 148.978 75.9795L151.338 84.3517C151.347 84.3687 151.352 84.3993 151.352 84.4417V84.4434ZM147.932 76.2631C147.89 76.1086 147.809 76.0321 147.69 76.0321C147.561 76.0321 147.477 76.1086 147.435 76.2631L146.274 80.4883H149.093L147.932 76.2631Z" fill="#212121"/>
<path d="M160.7 84.4434C160.7 84.581 160.628 84.6489 160.482 84.6489H159.73C159.671 84.6489 159.624 84.6302 159.59 84.5912C159.556 84.5521 159.531 84.508 159.514 84.457L158.684 81.5038H155.381L154.565 84.457C154.548 84.508 154.518 84.5538 154.476 84.5912C154.433 84.6302 154.386 84.6489 154.336 84.6489H153.583C153.438 84.6489 153.366 84.581 153.366 84.4434C153.366 84.401 153.369 84.3704 153.379 84.3534L155.739 75.9931C155.79 75.7961 155.864 75.6365 155.962 75.5108C156.06 75.3868 156.168 75.2883 156.287 75.2153C156.407 75.1423 156.532 75.0913 156.663 75.0608C156.795 75.0302 156.92 75.0166 157.04 75.0166C157.159 75.0166 157.283 75.0302 157.409 75.0557C157.537 75.0811 157.66 75.1304 157.778 75.2034C157.898 75.2764 158.006 75.3749 158.104 75.4989C158.202 75.6229 158.276 75.7842 158.327 75.9795L160.687 84.3517C160.695 84.3687 160.7 84.3993 160.7 84.4417V84.4434ZM157.283 76.2631C157.24 76.1086 157.159 76.0321 157.04 76.0321C156.911 76.0321 156.827 76.1086 156.785 76.2631L155.624 80.4883H158.443L157.283 76.2631Z" fill="#212121"/>
<path d="M168.52 82.1707C168.52 82.4781 168.473 82.7872 168.38 83.0946C168.287 83.4019 168.122 83.6788 167.889 83.9233C167.655 84.1678 167.334 84.3648 166.926 84.5143C166.518 84.6637 165.998 84.7384 165.371 84.7384C164.92 84.7384 164.524 84.7198 164.185 84.6807C163.844 84.6416 163.534 84.6009 163.254 84.5584C163.143 84.5415 163.075 84.516 163.05 84.482C163.024 84.448 163.011 84.3971 163.011 84.3275V83.8146C163.011 83.7467 163.031 83.694 163.075 83.6601C163.117 83.6261 163.168 83.6091 163.229 83.6091H163.267C163.412 83.6261 163.576 83.6397 163.758 83.6482C163.94 83.6567 164.128 83.6635 164.32 83.6669C164.511 83.672 164.698 83.6754 164.882 83.6805C165.064 83.6855 165.227 83.6872 165.372 83.6872C165.755 83.6872 166.073 83.6516 166.322 83.5786C166.574 83.5055 166.771 83.4036 166.916 83.2695C167.061 83.137 167.162 82.9757 167.221 82.7889C167.28 82.6004 167.311 82.3949 167.311 82.1724C167.311 82.0094 167.285 81.8617 167.235 81.7292C167.184 81.5967 167.098 81.466 166.98 81.3369C166.86 81.2078 166.703 81.0737 166.508 80.9327C166.312 80.7918 166.069 80.6305 165.781 80.4504L164.544 79.693C163.957 79.333 163.517 78.9713 163.223 78.6079C162.93 78.2445 162.783 77.8046 162.783 77.2918C162.783 76.5123 163.05 75.94 163.581 75.5715C164.112 75.2029 164.866 75.0195 165.845 75.0195C166.032 75.0195 166.229 75.0246 166.439 75.0331C166.646 75.0416 166.85 75.0518 167.051 75.0654C167.25 75.079 167.441 75.096 167.618 75.1163C167.796 75.1384 167.945 75.1571 168.065 75.1741C168.21 75.1995 168.282 75.2726 168.282 75.3931V75.9451C168.282 76.0826 168.21 76.1505 168.065 76.1505H168.039C167.759 76.1336 167.417 76.1166 167.012 76.0996C166.609 76.0826 166.219 76.0741 165.845 76.0741C165.182 76.0741 164.703 76.159 164.409 76.3306C164.116 76.5021 163.969 76.823 163.969 77.2935C163.969 77.594 164.079 77.8539 164.3 78.0763C164.521 78.2988 164.871 78.5552 165.356 78.8473L166.526 79.5538C166.891 79.7762 167.201 79.9902 167.454 80.1957C167.709 80.4012 167.916 80.6067 168.076 80.8122C168.238 81.0176 168.351 81.2316 168.421 81.4541C168.488 81.6766 168.522 81.916 168.522 82.1724L168.52 82.1707Z" fill="#212121"/>
<path d="M182.627 75.3255C182.627 75.3595 182.622 75.385 182.615 75.4019L180.269 83.7623C180.21 83.9678 180.131 84.1325 180.033 84.2565C179.935 84.3804 179.829 84.4789 179.714 84.5519C179.599 84.625 179.476 84.6742 179.345 84.6997C179.213 84.7252 179.086 84.7387 178.968 84.7387C178.85 84.7387 178.725 84.7252 178.599 84.6997C178.472 84.6742 178.348 84.625 178.23 84.5519C178.11 84.4789 178.002 84.3804 177.904 84.2565C177.806 84.1325 177.727 83.9678 177.668 83.7623L175.308 75.4019C175.3 75.385 175.294 75.3595 175.294 75.3255C175.294 75.2576 175.315 75.2032 175.359 75.1642C175.401 75.1251 175.456 75.1064 175.524 75.1064H176.263C176.313 75.1064 176.361 75.1251 176.403 75.1642C176.445 75.2032 176.475 75.2474 176.492 75.2983L178.712 83.4787C178.763 83.6587 178.847 83.7487 178.967 83.7487C179.076 83.7487 179.157 83.6587 179.21 83.4787L181.441 75.2983C181.458 75.2474 181.485 75.2015 181.524 75.1642C181.563 75.1251 181.607 75.1064 181.657 75.1064H182.409C182.555 75.1064 182.627 75.1795 182.627 75.3255Z" fill="#212121"/>
<path d="M190.331 84.4939C190.331 84.5364 190.321 84.5754 190.299 84.6094C190.277 84.6433 190.245 84.6654 190.203 84.6739C190.083 84.6909 189.923 84.7011 189.719 84.7062C189.514 84.7113 189.295 84.7164 189.062 84.7249C188.828 84.7334 188.592 84.7384 188.354 84.7384H187.716C186.816 84.7384 186.137 84.555 185.682 84.1865C185.227 83.818 185 83.2067 185 82.3507V77.4072C185 76.5513 185.228 75.94 185.682 75.5715C186.137 75.2029 186.816 75.0195 187.716 75.0195C187.904 75.0195 188.114 75.0212 188.347 75.0263C188.582 75.0314 188.813 75.0348 189.042 75.0399C189.272 75.045 189.489 75.0535 189.693 75.0654C189.897 75.079 190.068 75.0892 190.203 75.0977C190.245 75.1061 190.277 75.1282 190.299 75.1622C190.319 75.1961 190.331 75.2352 190.331 75.2777V75.9196C190.331 76.0232 190.284 76.0741 190.191 76.0741H187.73C187.389 76.0741 187.117 76.0979 186.913 76.1455C186.709 76.193 186.552 76.2694 186.441 76.3764C186.33 76.4834 186.255 76.6227 186.218 76.7942C186.18 76.9657 186.161 77.1712 186.161 77.4106V79.1955H190.076C190.144 79.1955 190.204 79.2209 190.255 79.2719C190.306 79.3228 190.331 79.3823 190.331 79.4485V79.9308C190.331 79.9987 190.306 80.0581 190.255 80.1091C190.204 80.16 190.144 80.1855 190.076 80.1855H186.161V82.3507C186.161 82.6004 186.18 82.8076 186.218 82.9757C186.257 83.1438 186.331 83.2814 186.441 83.3884C186.551 83.4953 186.709 83.5735 186.913 83.621C187.117 83.6686 187.389 83.6923 187.73 83.6923H190.191C190.284 83.6923 190.331 83.7433 190.331 83.8469V84.5024V84.4939Z" fill="#212121"/>
<path d="M199.782 84.482C199.782 84.5941 199.726 84.6484 199.617 84.6484H198.8C198.724 84.6484 198.662 84.6416 198.615 84.6298C198.568 84.6162 198.519 84.5669 198.468 84.482L196.184 80.6559H195.852C195.639 80.6559 195.437 80.6542 195.246 80.6491C195.056 80.6457 194.789 80.6339 194.448 80.6169V84.392C194.448 84.4599 194.426 84.5211 194.384 84.572C194.342 84.623 194.286 84.6484 194.219 84.6484H193.531C193.463 84.6484 193.408 84.623 193.365 84.572C193.323 84.5211 193.301 84.4616 193.301 84.392V75.4033C193.301 75.3099 193.322 75.242 193.365 75.2046C193.408 75.1656 193.489 75.1384 193.608 75.1214C193.745 75.1044 193.903 75.0892 194.087 75.0773C194.27 75.0637 194.462 75.0535 194.661 75.045C194.86 75.0365 195.062 75.0297 195.266 75.0263C195.471 75.0212 195.666 75.0195 195.853 75.0195C196.354 75.0195 196.825 75.0671 197.264 75.1605C197.702 75.2556 198.08 75.4084 198.399 75.6224C198.718 75.8364 198.969 76.1183 199.151 76.4698C199.333 76.8213 199.426 77.2578 199.426 77.7791V77.8691C199.426 78.2292 199.377 78.5518 199.279 78.8388C199.182 79.1258 199.043 79.3755 198.864 79.5894C198.686 79.8034 198.473 79.9834 198.227 80.1295C197.981 80.2755 197.712 80.3859 197.424 80.464L199.745 84.3682C199.77 84.4107 199.784 84.4497 199.784 84.4837L199.782 84.482ZM198.277 77.7791C198.277 77.1372 198.073 76.6923 197.665 76.4443C197.257 76.1964 196.653 76.0724 195.853 76.0724H195.509C195.381 76.0724 195.251 76.0741 195.12 76.0792C194.988 76.0843 194.862 76.0877 194.744 76.0928C194.624 76.0979 194.526 76.103 194.45 76.1115V79.6302C194.73 79.6387 194.998 79.6455 195.253 79.6489C195.508 79.654 195.708 79.6557 195.852 79.6557C196.243 79.6557 196.589 79.6285 196.891 79.5725C197.193 79.5164 197.446 79.4213 197.65 79.2838C197.854 79.1462 198.009 78.9645 198.115 78.7386C198.222 78.5128 198.274 78.2224 198.274 77.8725V77.7825L198.277 77.7791Z" fill="#212121"/>
<path d="M207.933 82.1707C207.933 82.4781 207.886 82.7872 207.793 83.0946C207.7 83.4019 207.537 83.6788 207.302 83.9233C207.068 84.1678 206.747 84.3648 206.339 84.5143C205.931 84.6637 205.411 84.7384 204.784 84.7384C204.333 84.7384 203.937 84.7198 203.598 84.6807C203.257 84.6416 202.947 84.6009 202.667 84.5584C202.555 84.5415 202.488 84.516 202.463 84.482C202.437 84.448 202.424 84.3971 202.424 84.3275V83.8146C202.424 83.7467 202.446 83.694 202.488 83.6601C202.53 83.6261 202.581 83.6091 202.641 83.6091H202.68C202.825 83.6261 202.989 83.6397 203.171 83.6482C203.353 83.6567 203.54 83.6635 203.733 83.6669C203.923 83.672 204.111 83.6754 204.294 83.6805C204.477 83.6855 204.64 83.6872 204.785 83.6872C205.168 83.6872 205.485 83.6516 205.735 83.5786C205.986 83.5055 206.184 83.4036 206.329 83.2695C206.474 83.137 206.575 82.9757 206.634 82.7889C206.693 82.6004 206.724 82.3949 206.724 82.1724C206.724 82.0094 206.698 81.8617 206.648 81.7292C206.597 81.5967 206.511 81.466 206.393 81.3369C206.273 81.2078 206.116 81.0737 205.921 80.9327C205.725 80.7918 205.482 80.6305 205.194 80.4504L203.957 79.693C203.37 79.333 202.93 78.9713 202.636 78.6079C202.343 78.2445 202.196 77.8046 202.196 77.2918C202.196 76.5123 202.461 75.94 202.994 75.5715C203.525 75.2029 204.279 75.0195 205.258 75.0195C205.445 75.0195 205.642 75.0246 205.851 75.0331C206.061 75.0416 206.265 75.0518 206.464 75.0654C206.663 75.079 206.853 75.096 207.032 75.1163C207.211 75.1384 207.359 75.1571 207.479 75.1741C207.624 75.1995 207.697 75.2726 207.697 75.3931V75.9451C207.697 76.0826 207.624 76.1505 207.479 76.1505H207.454C207.174 76.1336 206.831 76.1166 206.427 76.0996C206.022 76.0826 205.634 76.0741 205.259 76.0741C204.596 76.0741 204.117 76.159 203.824 76.3306C203.53 76.5021 203.384 76.823 203.384 77.2935C203.384 77.594 203.493 77.8539 203.714 78.0763C203.935 78.2988 204.286 78.5552 204.77 78.8473L205.941 79.5538C206.305 79.7762 206.616 79.9902 206.869 80.1957C207.123 80.4012 207.331 80.6067 207.491 80.8122C207.653 81.0176 207.766 81.2316 207.835 81.4541C207.903 81.6766 207.936 81.916 207.936 82.1724L207.933 82.1707Z" fill="#212121"/>
<path d="M212.13 84.3926C212.13 84.4605 212.108 84.5216 212.066 84.5726C212.024 84.6235 211.968 84.649 211.9 84.649H211.199C211.131 84.649 211.076 84.6235 211.033 84.5726C210.991 84.5216 210.969 84.4622 210.969 84.3926V75.3529C210.969 75.285 210.989 75.2273 211.033 75.1797C211.076 75.1322 211.131 75.1084 211.199 75.1084H211.9C211.968 75.1084 212.024 75.1322 212.066 75.1797C212.108 75.2273 212.13 75.285 212.13 75.3529V84.3926Z" fill="#212121"/>
<path d="M222.205 80.7071C222.205 81.417 222.119 82.0283 221.949 82.5378C221.778 83.0473 221.54 83.465 221.233 83.7894C220.926 84.1155 220.562 84.3549 220.14 84.5077C219.719 84.6606 219.257 84.7387 218.754 84.7387C218.251 84.7387 217.789 84.6623 217.367 84.5077C216.946 84.3532 216.581 84.1138 216.274 83.7894C215.967 83.4633 215.726 83.0473 215.552 82.5378C215.377 82.0283 215.291 81.4187 215.291 80.7071V79.0514C215.291 78.3415 215.378 77.7301 215.552 77.2224C215.726 76.7129 215.967 76.2951 216.274 75.9708C216.581 75.6447 216.946 75.4053 217.367 75.2524C217.789 75.0996 218.251 75.0215 218.754 75.0215C219.257 75.0215 219.719 75.0979 220.14 75.2524C220.562 75.407 220.926 75.6464 221.233 75.9708C221.54 76.2968 221.778 76.7129 221.949 77.2224C222.119 77.7318 222.205 78.3415 222.205 79.0514V80.7071ZM221.019 79.0514C221.019 78.5113 220.967 78.0545 220.861 77.6775C220.754 77.3005 220.604 76.9931 220.409 76.7537C220.213 76.5142 219.977 76.341 219.697 76.234C219.417 76.127 219.103 76.0727 218.756 76.0727C218.408 76.0727 218.094 76.127 217.814 76.234C217.534 76.341 217.295 76.5142 217.096 76.7537C216.897 76.9931 216.745 77.3022 216.639 77.6775C216.532 78.0545 216.48 78.513 216.48 79.0514V80.7071C216.48 81.2472 216.532 81.704 216.639 82.081C216.745 82.458 216.895 82.7654 217.091 83.0048C217.286 83.2443 217.526 83.4175 217.809 83.5245C218.093 83.6315 218.41 83.6858 218.757 83.6858C219.105 83.6858 219.418 83.6332 219.698 83.5245C219.978 83.4175 220.216 83.2443 220.41 83.0048C220.606 82.7654 220.756 82.4563 220.862 82.081C220.969 81.704 221.021 81.2455 221.021 80.7071V79.0514H221.019Z" fill="#212121"/>
<path d="M231.899 84.2766C231.899 84.3785 231.864 84.4668 231.791 84.5398C231.721 84.6128 231.633 84.6485 231.533 84.6485H230.751C230.547 84.6485 230.41 84.5806 230.342 84.443L226.4 76.9046C226.383 76.8791 226.37 76.8655 226.362 76.8655C226.353 76.8655 226.348 76.8791 226.348 76.9046V84.4039C226.348 84.4719 226.326 84.5296 226.284 84.5772C226.242 84.6247 226.186 84.6485 226.119 84.6485H225.456C225.388 84.6485 225.333 84.64 225.29 84.623C225.248 84.606 225.226 84.5636 225.226 84.494V75.4662C225.226 75.3643 225.262 75.2777 225.334 75.2098C225.407 75.1419 225.495 75.1062 225.596 75.1062H226.297C226.476 75.1062 226.594 75.1249 226.655 75.1639C226.714 75.203 226.77 75.2692 226.82 75.3626L230.736 82.862L230.761 82.901C230.761 82.901 230.774 82.8874 230.774 82.862V75.349C230.774 75.2811 230.795 75.2234 230.837 75.1758C230.879 75.1283 230.933 75.1045 231 75.1045H231.668C231.736 75.1045 231.79 75.1283 231.832 75.1758C231.874 75.2234 231.896 75.2811 231.896 75.349V84.2732L231.899 84.2766Z" fill="#212121"/>
</g>
<defs>
<clipPath id="clip0_678_1114">
<rect width="256.398" height="120.999" fill="white"/>
</clipPath>
</defs>
</svg>
