<svg width="29" height="30" viewBox="0 0 29 30" fill="none" xmlns="http://www.w3.org/2000/svg">
<path d="M27.4837 6.47265C26.5141 6.88569 25.4809 7.15947 24.4037 7.29241C25.5119 6.64989 26.3577 5.64023 26.7553 4.42325C25.7221 5.02145 24.5814 5.44399 23.3657 5.67979C22.3846 4.66538 20.9864 4.03711 19.4611 4.03711C16.5017 4.03711 14.1192 6.36978 14.1192 9.22945C14.1192 9.64091 14.155 10.0365 14.243 10.4132C9.799 10.2027 5.86671 8.13432 3.22508 4.98347C2.76389 5.7605 2.49337 6.64989 2.49337 7.60734C2.49337 9.40511 3.4467 10.9987 4.86774 11.9214C4.00893 11.9055 3.16641 11.6634 2.45263 11.282C2.45263 11.2978 2.45263 11.3184 2.45263 11.339C2.45263 13.8616 4.30552 15.9569 6.7353 16.4395C6.30019 16.5551 5.82596 16.6104 5.33382 16.6104C4.99159 16.6104 4.64611 16.5915 4.32182 16.5218C5.01441 18.5776 6.97974 20.0889 9.31663 20.1379C7.49796 21.5195 5.18878 22.3519 2.68893 22.3519C2.25056 22.3519 1.83011 22.3329 1.40967 22.2807C3.77752 23.7636 6.58374 24.6102 9.60996 24.6102C19.4464 24.6102 24.8242 16.6975 24.8242 9.83873C24.8242 9.60926 24.816 9.3877 24.8046 9.16773C25.8655 8.43659 26.7569 7.52346 27.4837 6.47265Z" fill="#1E2833"/>
</svg>
